{"accessors" : [{"bufferView" : 0, "byteOffset" : 0, "componentType" : 5123, "count" : 618, "type" : "SCALAR", "max" : [119], "min" : [0]}, {"bufferView" : 1, "byteOffset" : 0, "componentType" : 5126, "count" : 120, "type" : "VEC3", "max" : [0.050940580666065216, 1.7422274351119995, 0.11011719703674316], "min" : [0.01340544130653143, 1.7047497034072876, 0.0914614126086235], "name" : "POSITION"}, {"bufferView" : 1, "byteOffset" : 12, "componentType" : 5126, "count" : 120, "type" : "VEC3", "max" : [0.9406006932258606, 0.9512309432029724, 1.0000042915344238], "min" : [-0.9471116065979004, -0.9485120177268982, -1.0000042915344238], "name" : "NORMAL"}, {"bufferView" : 1, "byteOffset" : 24, "componentType" : 5126, "count" : 120, "type" : "VEC2", "max" : [0.9646214246749878, 1.9818061590194702], "min" : [0.019903719425201416, 1.0209906101226807], "name" : "TEXCOORD_0"}, {"bufferView" : 0, "byteOffset" : 1236, "componentType" : 5123, "count" : 618, "type" : "SCALAR", "max" : [119], "min" : [0]}, {"bufferView" : 2, "byteOffset" : 0, "componentType" : 5126, "count" : 120, "type" : "VEC3", "max" : [-0.013667194172739983, 1.742264747619629, 0.11011723428964615], "min" : [-0.05105312913656235, 1.7047098875045776, 0.09146144241094589], "name" : "POSITION"}, {"bufferView" : 2, "byteOffset" : 12, "componentType" : 5126, "count" : 120, "type" : "VEC3", "max" : [0.9310468435287476, 0.9478710293769836, 1.0000042915344238], "min" : [-0.9491647481918335, -0.9364743232727051, -1.0000042915344238], "name" : "NORMAL"}, {"bufferView" : 2, "byteOffset" : 24, "componentType" : 5126, "count" : 120, "type" : "VEC2", "max" : [0.9585750699043274, 1.966354489326477], "min" : [0.006885886192321777, 1.022762417793274], "name" : "TEXCOORD_0"}, {"bufferView" : 0, "byteOffset" : 2472, "componentType" : 5123, "count" : 12282, "type" : "SCALAR", "max" : [2161], "min" : [0]}, {"bufferView" : 3, "byteOffset" : 0, "componentType" : 5126, "count" : 2162, "type" : "VEC3", "max" : [0.09579431265592575, 1.8330844640731812, 0.13683637976646423], "min" : [-0.09610731154680252, 1.5206061601638794, -0.08657769858837128], "name" : "POSITION"}, {"bufferView" : 3, "byteOffset" : 12, "componentType" : 5126, "count" : 2162, "type" : "VEC3", "max" : [0.9992218613624573, 0.9998693466186523, 0.9999847412109375], "min" : [-0.9992175102233887, -0.9999938011169434, -0.9999959468841553], "name" : "NORMAL"}, {"bufferView" : 3, "byteOffset" : 24, "componentType" : 5126, "count" : 2162, "type" : "VEC2", "max" : [0.9943000078201294, 1.9807000160217285], "min" : [0.004999999888241291, 1.004349946975708], "name" : "TEXCOORD_0"}, {"bufferView" : 0, "byteOffset" : 27036, "componentType" : 5123, "count" : 300, "type" : "SCALAR", "max" : [83], "min" : [0]}, {"bufferView" : 4, "byteOffset" : 0, "componentType" : 5126, "count" : 84, "type" : "VEC3", "max" : [0.028277432546019554, 1.6737065315246582, 0.11796043813228607], "min" : [-0.028277432546019554, 1.6369129419326782, 0.05024511739611626], "name" : "POSITION"}, {"bufferView" : 4, "byteOffset" : 12, "componentType" : 5126, "count" : 84, "type" : "VEC3", "max" : [0.9971882700920105, 0.8775893449783325, 0.9974808692932129], "min" : [-0.9971882700920105, -0.9858413934707642, -0.7650182843208313], "name" : "NORMAL"}, {"bufferView" : 4, "byteOffset" : 24, "componentType" : 5126, "count" : 84, "type" : "VEC2", "max" : [0.9808249473571777, 1.9832134246826172], "min" : [0.051069796085357666, 1.028295874595642], "name" : "TEXCOORD_0"}, {"bufferView" : 0, "byteOffset" : 27636, "componentType" : 5123, "count" : 4086, "type" : "SCALAR", "max" : [754], "min" : [0]}, {"bufferView" : 5, "byteOffset" : 0, "componentType" : 5126, "count" : 755, "type" : "VEC3", "max" : [0.10085515677928925, 1.846076250076294, 0.13853837549686432], "min" : [-0.09734325110912323, 1.6476335525512695, -0.0883576050400734], "name" : "POSITION"}, {"bufferView" : 5, "byteOffset" : 12, "componentType" : 5126, "count" : 755, "type" : "VEC3", "max" : [0.9949291944503784, 0.9999542236328125, 0.9887905716896057], "min" : [-0.9993915557861328, -0.9967240691184998, -0.9986098408699036], "name" : "NORMAL"}, {"bufferView" : 5, "byteOffset" : 24, "componentType" : 5126, "count" : 755, "type" : "VEC2", "max" : [0.7618399858474731, 1.9980499744415283], "min" : [0.0019499999471008778, 1.001960039138794], "name" : "TEXCOORD_0"}, {"bufferView" : 0, "byteOffset" : 35808, "componentType" : 5123, "count" : 1860, "type" : "SCALAR", "max" : [613], "min" : [0]}, {"bufferView" : 6, "byteOffset" : 0, "componentType" : 5126, "count" : 614, "type" : "VEC3", "max" : [0.08233152329921722, 1.7353516817092896, 0.12727046012878418], "min" : [-0.08233150839805603, 1.6950706243515015, -0.003492202842608094], "name" : "POSITION"}, {"bufferView" : 6, "byteOffset" : 12, "componentType" : 5126, "count" : 614, "type" : "VEC3", "max" : [0.9959605932235718, 1.0000011920928955, 0.9999120235443115], "min" : [-0.9959606528282166, -0.9994269609451294, -0.9992101192474365], "name" : "NORMAL"}, {"bufferView" : 6, "byteOffset" : 24, "componentType" : 5126, "count" : 614, "type" : "VEC2", "max" : [0.9907448887825012, 1.998046875], "min" : [0.001953125, 1.001953125], "name" : "TEXCOORD_0"}, {"bufferView" : 0, "byteOffset" : 39528, "componentType" : 5123, "count" : 5022, "type" : "SCALAR", "max" : [1107], "min" : [0]}, {"bufferView" : 7, "byteOffset" : 0, "componentType" : 5126, "count" : 1108, "type" : "VEC3", "max" : [0.5314635038375854, 1.1030899286270142, 0.14859214425086975], "min" : [-0.5314705967903137, 0.06424117088317871, -0.10406744480133057], "name" : "POSITION"}, {"bufferView" : 7, "byteOffset" : 12, "componentType" : 5126, "count" : 1108, "type" : "VEC3", "max" : [0.9990524053573608, 0.8005262613296509, 0.9933851361274719], "min" : [-0.9990530014038086, -0.9900115132331848, -0.9930083751678467], "name" : "NORMAL"}, {"bufferView" : 7, "byteOffset" : 24, "componentType" : 5126, "count" : 1108, "type" : "VEC4", "max" : [0.9997003674507141, 0.9990332126617432, 0.9992393851280212, 0], "min" : [-0.9964958429336548, -0.9887939095497131, -0.9998924136161804, 0], "name" : "TANGENT"}, {"bufferView" : 7, "byteOffset" : 40, "componentType" : 5126, "count" : 1108, "type" : "VEC2", "max" : [0.9857610464096069, 1.9892195463180542], "min" : [0.018731044605374336, 1.0793609619140625], "name" : "TEXCOORD_0"}, {"bufferView" : 0, "byteOffset" : 49572, "componentType" : 5123, "count" : 3183, "type" : "SCALAR", "max" : [636], "min" : [0]}, {"bufferView" : 8, "byteOffset" : 0, "componentType" : 5126, "count" : 637, "type" : "VEC3", "max" : [0.19669286906719208, 1.073263168334961, 0.135578453540802], "min" : [-0.19601228833198547, 0.19393394887447357, -0.1236712709069252], "name" : "POSITION"}, {"bufferView" : 8, "byteOffset" : 12, "componentType" : 5126, "count" : 637, "type" : "VEC3", "max" : [0.99992835521698, 0.6503220200538635, 0.999135434627533], "min" : [-0.9999286532402039, -0.9999528527259827, -0.9999939203262329], "name" : "NORMAL"}, {"bufferView" : 8, "byteOffset" : 24, "componentType" : 5126, "count" : 637, "type" : "VEC4", "max" : [0.9999869465827942, 0.6244168877601624, 1.0000022649765015, 0], "min" : [-0.9939438700675964, -0.5765154957771301, -1.000002145767212, 0], "name" : "TANGENT"}, {"bufferView" : 8, "byteOffset" : 40, "componentType" : 5126, "count" : 637, "type" : "VEC2", "max" : [0.9872713088989258, 1.993969440460205], "min" : [0.015709467232227325, 1.094397783279419], "name" : "TEXCOORD_0"}, {"bufferView" : 0, "byteOffset" : 55940, "componentType" : 5123, "count" : 3966, "type" : "SCALAR", "max" : [983], "min" : [0]}, {"bufferView" : 9, "byteOffset" : 0, "componentType" : 5126, "count" : 984, "type" : "VEC3", "max" : [0.23703338205814362, 0.18304884433746338, 0.24138063192367554], "min" : [-0.23703888058662415, 0.0007621034746989608, -0.12956245243549347], "name" : "POSITION"}, {"bufferView" : 9, "byteOffset" : 12, "componentType" : 5126, "count" : 984, "type" : "VEC3", "max" : [0.9999168515205383, 0.9974513053894043, 0.9951024055480957], "min" : [-0.9999164342880249, -1.0000044107437134, -0.9961774945259094], "name" : "NORMAL"}, {"bufferView" : 9, "byteOffset" : 24, "componentType" : 5126, "count" : 984, "type" : "VEC4", "max" : [0.9999467730522156, 0.8955745100975037, 0.9980344176292419, 0], "min" : [-0.9993343949317932, -0.9999600052833557, -0.9223737120628357, 0], "name" : "TANGENT"}, {"bufferView" : 9, "byteOffset" : 40, "componentType" : 5126, "count" : 984, "type" : "VEC2", "max" : [0.9763879776000977, 1.9864959716796875], "min" : [0.009003999643027782, 1.0123169422149658], "name" : "TEXCOORD_0"}, {"bufferView" : 0, "byteOffset" : 63872, "componentType" : 5123, "count" : 7722, "type" : "SCALAR", "max" : [1509], "min" : [0]}, {"bufferView" : 10, "byteOffset" : 0, "componentType" : 5126, "count" : 1510, "type" : "VEC3", "max" : [0.46988755464553833, 1.6521693468093872, 0.16343297064304352], "min" : [-0.4703596234321594, 1.002012848854065, -0.20412492752075195], "name" : "POSITION"}, {"bufferView" : 10, "byteOffset" : 12, "componentType" : 5126, "count" : 1510, "type" : "VEC3", "max" : [0.9998718500137329, 0.9818815588951111, 0.9998990297317505], "min" : [-0.9999059438705444, -0.9939301013946533, -0.9998037219047546], "name" : "NORMAL"}, {"bufferView" : 10, "byteOffset" : 24, "componentType" : 5126, "count" : 1510, "type" : "VEC4", "max" : [1.0000001192092896, 0.8541935682296753, 0.9988598227500916, 0], "min" : [-1.0000042915344238, -0.8054600358009338, -0.9990207552909851, 0], "name" : "TANGENT"}, {"bufferView" : 10, "byteOffset" : 40, "componentType" : 5126, "count" : 1510, "type" : "VEC2", "max" : [0.9807490706443787, 1.9795656204223633], "min" : [0.021974602714180946, 1.0285882949829102], "name" : "TEXCOORD_0"}, {"bufferView" : 11, "byteOffset" : 0, "componentType" : 5126, "normalized" : false, "count" : 149, "type" : "SCALAR", "max" : [4.933333333333334], "min" : [0]}, {"bufferView" : 11, "byteOffset" : 596, "componentType" : 5126, "normalized" : false, "count" : 149, "type" : "VEC3", "max" : [0.017090704292058945, 0.8794042468070984, 0.19470250606536865], "min" : [-0.0987469032406807, 0.5889033079147339, -0.007172372192144394]}], "animations" : [{"channels" : [{"sampler" : 0, "target" : {"node" : -1, "path" : "translation"}}], "samplers" : [{"input" : 44, "interpolation" : "CUBICSPLINE", "output" : 45}], "name" : "mixamo.com"}], "asset" : {"generator" : "Aspose.3D 24.9.1", "version" : "2.0"}, "buffers" : [{"uri" : "data:application/octet-stream;base64,", "byteLength" : 408580}], "bufferViews" : [{"buffer" : 0, "byteOffset" : 0, "byteLength" : 79316, "target" : 34963}, {"buffer" : 0, "byteOffset" : 79320, "byteLength" : 3840, "byteStride" : 32, "target" : 34962}, {"buffer" : 0, "byteOffset" : 83164, "byteLength" : 3840, "byteStride" : 32, "target" : 34962}, {"buffer" : 0, "byteOffset" : 87008, "byteLength" : 69184, "byteStride" : 32, "target" : 34962}, {"buffer" : 0, "byteOffset" : 156196, "byteLength" : 2688, "byteStride" : 32, "target" : 34962}, {"buffer" : 0, "byteOffset" : 158888, "byteLength" : 24160, "byteStride" : 32, "target" : 34962}, {"buffer" : 0, "byteOffset" : 183052, "byteLength" : 19648, "byteStride" : 32, "target" : 34962}, {"buffer" : 0, "byteOffset" : 202704, "byteLength" : 53184, "byteStride" : 48, "target" : 34962}, {"buffer" : 0, "byteOffset" : 255892, "byteLength" : 30576, "byteStride" : 48, "target" : 34962}, {"buffer" : 0, "byteOffset" : 286472, "byteLength" : 47232, "byteStride" : 48, "target" : 34962}, {"buffer" : 0, "byteOffset" : 333708, "byteLength" : 72480, "byteStride" : 48, "target" : 34962}, {"buffer" : 0, "byteOffset" : 406192, "byteLength" : 2384}], "materials" : [{"name" : "Wolf3D_Eye", "pbrMetallicRoughness" : {"baseColorFactor" : [1, 1, 1, 1], "metallicFactor" : 1, "roughnessFactor" : 1}, "emissiveFactor" : [0, 0, 0], "alphaMode" : "OPAQUE", "doubleSided" : false}, {"name" : "Wolf3D_Eye", "pbrMetallicRoughness" : {"baseColorFactor" : [1, 1, 1, 1], "metallicFactor" : 1, "roughnessFactor" : 1}, "emissiveFactor" : [0, 0, 0], "alphaMode" : "OPAQUE", "doubleSided" : false}, {"name" : "Wolf3D_Skin", "pbrMetallicRoughness" : {"baseColorFactor" : [1, 1, 1, 1], "metallicFactor" : 1, "roughnessFactor" : 1}, "emissiveFactor" : [0, 0, 0], "alphaMode" : "OPAQUE", "doubleSided" : false}, {"name" : "Wolf3D_Teeth", "pbrMetallicRoughness" : {"baseColorFactor" : [1, 1, 1, 1], "metallicFactor" : 1, "roughnessFactor" : 1}, "emissiveFactor" : [0, 0, 0], "alphaMode" : "OPAQUE", "doubleSided" : false}, {"name" : "Wolf3D_Hair", "pbrMetallicRoughness" : {"baseColorFactor" : [1, 1, 1, 1], "metallicFactor" : 1, "roughnessFactor" : 1}, "emissiveFactor" : [0, 0, 0], "alphaMode" : "OPAQUE", "doubleSided" : false}, {"name" : "Wolf3D_Glasses", "pbrMetallicRoughness" : {"baseColorFactor" : [1, 1, 1, 1], "metallicFactor" : 1, "roughnessFactor" : 1}, "emissiveFactor" : [0, 0, 0], "alphaMode" : "OPAQUE", "doubleSided" : false}, {"name" : "Wolf3D_Body", "pbrMetallicRoughness" : {"baseColorFactor" : [1, 1, 1, 1], "metallicFactor" : 1, "roughnessFactor" : 1}, "emissiveFactor" : [0, 0, 0], "alphaMode" : "OPAQUE", "doubleSided" : false}, {"name" : "Wolf3D_Outfit_Bottom", "pbrMetallicRoughness" : {"baseColorFactor" : [1, 1, 1, 1], "metallicFactor" : 1, "roughnessFactor" : 1}, "emissiveFactor" : [0, 0, 0], "alphaMode" : "OPAQUE", "doubleSided" : false}, {"name" : "Wolf3D_Outfit_Footwear", "pbrMetallicRoughness" : {"baseColorFactor" : [1, 1, 1, 1], "metallicFactor" : 1, "roughnessFactor" : 1}, "emissiveFactor" : [0, 0, 0], "alphaMode" : "OPAQUE", "doubleSided" : false}, {"name" : "Wolf3D_Outfit_Top", "pbrMetallicRoughness" : {"baseColorFactor" : [1, 1, 1, 1], "metallicFactor" : 1, "roughnessFactor" : 1}, "emissiveFactor" : [0, 0, 0], "alphaMode" : "OPAQUE", "doubleSided" : false}], "meshes" : [{"primitives" : [{"attributes" : {"POSITION" : 1, "NORMAL" : 2, "TEXCOORD_0" : 3}, "indices" : 0, "material" : 0, "mode" : 4}], "name" : ""}, {"primitives" : [{"attributes" : {"POSITION" : 5, "NORMAL" : 6, "TEXCOORD_0" : 7}, "indices" : 4, "material" : 1, "mode" : 4}], "name" : ""}, {"primitives" : [{"attributes" : {"POSITION" : 9, "NORMAL" : 10, "TEXCOORD_0" : 11}, "indices" : 8, "material" : 2, "mode" : 4}], "name" : ""}, {"primitives" : [{"attributes" : {"POSITION" : 13, "NORMAL" : 14, "TEXCOORD_0" : 15}, "indices" : 12, "material" : 3, "mode" : 4}], "name" : ""}, {"primitives" : [{"attributes" : {"POSITION" : 17, "NORMAL" : 18, "TEXCOORD_0" : 19}, "indices" : 16, "material" : 4, "mode" : 4}], "name" : ""}, {"primitives" : [{"attributes" : {"POSITION" : 21, "NORMAL" : 22, "TEXCOORD_0" : 23}, "indices" : 20, "material" : 5, "mode" : 4}], "name" : ""}, {"primitives" : [{"attributes" : {"POSITION" : 25, "NORMAL" : 26, "TANGENT" : 27, "TEXCOORD_0" : 28}, "indices" : 24, "material" : 6, "mode" : 4}], "name" : ""}, {"primitives" : [{"attributes" : {"POSITION" : 30, "NORMAL" : 31, "TANGENT" : 32, "TEXCOORD_0" : 33}, "indices" : 29, "material" : 7, "mode" : 4}], "name" : ""}, {"primitives" : [{"attributes" : {"POSITION" : 35, "NORMAL" : 36, "TANGENT" : 37, "TEXCOORD_0" : 38}, "indices" : 34, "material" : 8, "mode" : 4}], "name" : ""}, {"primitives" : [{"attributes" : {"POSITION" : 40, "NORMAL" : 41, "TANGENT" : 42, "TEXCOORD_0" : 43}, "indices" : 39, "material" : 9, "mode" : 4}], "name" : ""}], "nodes" : [{"mesh" : 0, "name" : "EyeLeft"}, {"mesh" : 1, "name" : "EyeRight"}, {"mesh" : 2, "name" : "Wolf3D_Head"}, {"mesh" : 3, "name" : "Wolf3D_Teeth"}, {"mesh" : 4, "name" : "Wolf3D_Hair"}, {"mesh" : 5, "name" : "Wolf3D_Glasses"}, {"mesh" : 6, "name" : "Wolf3D_Body"}, {"mesh" : 7, "name" : "Wolf3D_Outfit_Bottom"}, {"mesh" : 8, "name" : "Wolf3D_Outfit_Footwear"}, {"mesh" : 9, "name" : "Wolf3D_Outfit_Top"}, {"children" : [0, 1, 2, 3, 4, 5, 6, 7, 8, 9], "name" : "Armature"}], "scene" : 0, "scenes" : [{"nodes" : [10]}]}