<?xml version="1.0" standalone="no"?>
<!DOCTYPE svg PUBLIC "-//W3C//DTD SVG 20010904//EN"
 "http://www.w3.org/TR/2001/REC-SVG-20010904/DTD/svg10.dtd">
<svg version="1.0" xmlns="http://www.w3.org/2000/svg"
 width="320.000000pt" height="320.000000pt" viewBox="0 0 320.000000 320.000000"
 preserveAspectRatio="xMidYMid meet">

<g transform="translate(0.000000,320.000000) scale(0.100000,-0.100000)"
fill="#000000" stroke="none">
<path d="M1316 2764 c-8 -20 -8 -24 2 -24 4 0 8 9 9 20 2 24 -3 26 -11 4z"/>
<path d="M1260 2761 c0 -5 7 -15 17 -22 15 -13 15 -12 4 9 -12 23 -21 28 -21
13z"/>
<path d="M1359 2711 c-28 -23 -49 -31 -100 -36 -91 -9 -109 -14 -109 -29 0 -8
-7 -16 -15 -20 -8 -3 -12 -12 -9 -21 4 -10 0 -15 -10 -15 -11 0 -16 -9 -16
-29 0 -17 -4 -33 -10 -36 -5 -3 -10 -12 -10 -18 1 -7 10 -1 20 12 21 24 27 13
11 -18 -7 -13 -5 -20 11 -30 18 -11 19 -10 13 8 -6 21 9 29 20 11 3 -5 11 -10
18 -10 8 0 8 3 -1 12 -16 16 -15 48 1 48 6 0 12 11 12 25 0 14 -3 25 -7 25 -4
0 -5 7 -2 15 4 8 1 15 -5 15 -6 0 -11 4 -11 8 0 5 19 9 43 10 23 1 59 4 80 8
32 5 37 3 37 -13 0 -11 -5 -24 -12 -31 -17 -17 -9 -21 66 -25 52 -3 72 -8 82
-22 7 -10 11 -21 9 -25 -3 -4 3 -14 12 -21 14 -12 15 -12 10 1 -19 48 -38 122
-32 128 3 4 47 12 97 17 54 6 93 15 95 22 6 17 -61 33 -143 33 -51 0 -75 4
-84 15 -17 20 -20 19 -61 -14z m-209 -141 c0 -5 -4 -10 -10 -10 -5 0 -10 5
-10 10 0 6 5 10 10 10 6 0 10 -4 10 -10z"/>
<path d="M985 2620 c-3 -5 -1 -10 4 -10 6 0 11 5 11 10 0 6 -2 10 -4 10 -3 0
-8 -4 -11 -10z"/>
<path d="M1040 2590 c0 -5 5 -10 10 -10 6 0 10 5 10 10 0 6 -4 10 -10 10 -5 0
-10 -4 -10 -10z"/>
<path d="M1610 2566 c0 -2 7 -6 15 -10 8 -3 15 -1 15 4 0 6 -7 10 -15 10 -8 0
-15 -2 -15 -4z"/>
<path d="M1026 2544 c-4 -10 14 -43 51 -91 32 -41 62 -80 66 -87 5 -6 -6 -57
-27 -121 -21 -64 -32 -113 -27 -118 10 -10 145 31 213 63 21 10 47 16 58 13
11 -3 20 -1 20 5 0 11 -33 22 -71 22 -36 0 -81 37 -78 64 1 11 -2 29 -6 39
-13 30 8 39 49 22 21 -9 66 -19 102 -22 60 -6 77 -14 54 -28 -5 -3 -10 -20
-10 -37 0 -18 -7 -36 -17 -44 -16 -12 -16 -13 -2 -14 24 0 36 19 43 72 6 40
11 49 32 54 25 6 31 18 14 29 -5 3 -10 1 -10 -4 0 -7 -27 -11 -68 -11 -80 0
-185 32 -206 62 -8 11 -20 17 -26 13 -8 -5 -6 -13 7 -27 10 -11 18 -33 19 -48
4 -81 13 -100 60 -123 l45 -22 -98 -32 c-53 -18 -100 -33 -104 -33 -8 0 0 39
11 55 3 6 17 44 30 86 l23 77 -67 85 c-36 47 -66 88 -66 91 0 3 9 6 19 6 11 0
23 5 26 10 4 6 -6 10 -23 10 -18 0 -32 -6 -36 -16z"/>
<path d="M1208 2543 c6 -2 18 -2 25 0 6 3 1 5 -13 5 -14 0 -19 -2 -12 -5z"/>
<path d="M1546 2543 c-11 -11 -6 -23 9 -23 8 0 15 4 15 9 0 13 -16 22 -24 14z"/>
<path d="M1605 2530 c3 -5 -1 -10 -9 -10 -9 0 -16 -5 -16 -11 0 -6 10 -9 22
-7 27 4 38 38 13 38 -9 0 -13 -4 -10 -10z"/>
<path d="M1265 2520 c-3 -5 3 -10 14 -10 12 0 21 5 21 10 0 6 -6 10 -14 10 -8
0 -18 -4 -21 -10z"/>
<path d="M1432 2499 c2 -7 10 -15 17 -17 8 -3 12 1 9 9 -2 7 -10 15 -17 17 -8
3 -12 -1 -9 -9z"/>
<path d="M1510 2501 c0 -5 10 -11 23 -14 12 -3 38 -11 57 -17 19 -7 47 -17 63
-23 15 -5 27 -12 27 -16 0 -5 -89 -69 -143 -103 -6 -4 -9 -10 -5 -13 7 -7 138
76 159 101 18 22 -3 38 -94 68 -87 29 -87 29 -87 17z"/>
<path d="M1252 2469 c-13 -5 -20 -14 -17 -20 5 -8 10 -8 18 0 6 6 19 11 30 11
10 0 15 5 12 10 -7 12 -12 12 -43 -1z"/>
<path d="M876 2445 c-3 -13 -19 -31 -35 -40 -38 -19 -69 -59 -81 -105 -7 -28
-18 -41 -40 -50 -39 -16 -80 -65 -80 -95 0 -16 -13 -33 -37 -52 -53 -39 -62
-53 -63 -91 0 -30 -14 -69 -29 -82 -3 -3 -23 -24 -43 -47 -34 -39 -38 -48 -37
-95 1 -33 -7 -74 -21 -108 -20 -50 -24 -86 -20 -190 0 -14 -2 -51 -6 -83 -4
-39 -2 -66 6 -81 9 -18 9 -28 0 -46 -15 -28 -5 -82 20 -105 16 -15 18 -27 14
-81 -6 -62 -5 -64 30 -100 20 -20 36 -40 37 -43 0 -3 2 -23 4 -43 3 -45 15
-61 67 -90 24 -14 41 -31 44 -48 15 -67 49 -117 75 -108 9 3 6 11 -9 26 -11
11 -26 40 -32 63 -7 25 -27 56 -51 80 -39 38 -45 53 -33 83 5 14 9 14 30 -3
13 -10 39 -37 58 -60 31 -37 35 -47 34 -97 -1 -45 2 -59 22 -77 21 -21 22 -21
15 -2 -5 11 -10 38 -13 59 l-4 39 23 -17 c26 -18 38 -20 58 -7 11 7 10 13 -5
36 -11 17 -17 42 -15 67 2 33 -4 46 -35 80 -34 38 -36 43 -30 92 6 48 4 54
-29 95 -19 24 -35 50 -35 57 0 8 -4 14 -9 14 -5 0 -18 19 -29 43 -17 35 -20
62 -13 96 1 2 11 -8 22 -23 17 -21 20 -36 16 -67 -4 -28 -2 -39 6 -36 21 7 13
91 -11 121 -16 21 -19 33 -12 46 5 9 7 20 4 23 -3 3 2 19 10 36 15 28 15 34 1
67 -13 32 -13 38 0 57 8 12 15 42 15 68 0 46 27 88 47 76 15 -9 66 30 93 70
14 21 32 39 40 40 79 10 94 16 130 55 35 38 41 41 88 39 36 -1 56 4 73 18 13
11 21 23 17 27 -5 4 -16 0 -26 -9 -12 -11 -36 -17 -68 -17 -44 0 -54 -5 -97
-43 -36 -32 -57 -43 -83 -44 -42 -1 -79 -24 -98 -61 -14 -27 -28 -36 -89 -61
-27 -11 -28 -10 -25 16 2 22 14 34 52 55 27 14 56 39 64 55 24 47 41 61 86 67
34 5 50 15 80 50 33 39 42 44 92 49 55 6 65 11 103 60 14 17 13 18 -21 12 -25
-5 -39 -2 -50 9 -25 25 -134 2 -169 -35 -15 -16 -31 -29 -37 -29 -5 0 -30 -12
-56 -26 -49 -27 -52 -25 -35 23 8 25 25 37 89 67 43 20 86 47 97 62 20 27 41
31 101 18 20 -4 32 -2 32 4 0 6 -12 12 -27 14 -20 2 -27 8 -25 21 3 20 -11 22
-27 3 -13 -15 -61 -28 -61 -15 0 4 12 17 28 28 21 16 23 20 9 21 -10 0 -46
-28 -80 -63 -65 -67 -106 -97 -132 -97 -8 0 -15 -4 -15 -9 0 -5 -6 -11 -14
-14 -11 -5 -13 0 -6 25 11 36 28 58 45 58 20 0 93 76 109 114 8 20 20 36 27
36 6 0 24 10 39 23 16 12 47 33 69 47 23 13 41 30 41 38 0 8 -14 2 -37 -17
-29 -24 -40 -28 -51 -19 -11 10 -16 8 -23 -5 -6 -9 -16 -17 -24 -17 -19 0 -85
-80 -91 -110 -4 -17 -22 -35 -56 -55 -55 -33 -88 -72 -88 -105 0 -13 -11 -27
-32 -38 -17 -9 -42 -27 -55 -39 l-23 -22 0 35 c0 20 7 40 18 48 9 8 31 26 47
39 19 16 35 41 43 71 9 36 18 49 40 57 39 15 70 47 78 83 4 17 7 33 7 36 -1 3
15 16 35 30 46 30 71 60 72 83 0 26 -17 21 -24 -8z m25 -302 c-12 -20 -14 -14
-5 12 4 9 9 14 11 11 3 -2 0 -13 -6 -23z m139 -85 c30 -10 31 -12 16 -24 -10
-7 -24 -10 -31 -8 -7 3 -32 0 -55 -6 -30 -8 -47 -20 -61 -45 -21 -35 -28 -39
-91 -49 -38 -7 -57 -25 -90 -85 -9 -17 -24 -31 -33 -31 -21 0 -75 -40 -75 -56
0 -7 -4 -16 -10 -19 -6 -3 -10 5 -10 18 0 24 27 59 83 105 15 12 30 35 33 51
5 23 15 33 51 46 26 10 48 26 53 39 5 11 9 15 9 9 2 -27 101 8 133 46 20 24
32 25 78 9z m-100 -3 c0 -2 -13 -11 -30 -20 -31 -16 -43 -3 -12 14 18 11 42
14 42 6z m-226 -52 c-4 -16 -10 -32 -15 -37 -7 -8 -4 17 7 52 7 24 14 11 8
-15z m-34 -2 c0 -25 -42 -75 -59 -70 -8 3 -2 16 18 39 17 19 31 38 31 43 0 17
10 5 10 -12z m-74 -33 c-8 -12 -18 -58 -22 -102 -6 -67 -11 -82 -34 -105 -39
-37 -47 -59 -49 -121 0 -39 -7 -63 -22 -84 -12 -16 -23 -45 -25 -64 -3 -35
-10 -50 -20 -40 -3 4 -1 23 5 45 6 21 11 63 11 93 0 39 6 62 20 80 14 17 20
41 20 77 0 39 5 55 19 65 30 21 71 89 71 117 0 15 7 37 16 49 21 30 30 21 10
-10z m-46 -36 c0 -35 -73 -118 -78 -89 -2 9 10 31 27 49 17 18 34 41 37 51 8
25 14 21 14 -11z m128 -38 c-7 -14 -24 -32 -39 -39 -25 -14 -27 -13 -22 5 3
11 10 20 17 20 6 0 17 9 24 20 18 29 34 25 20 -6z m-48 12 c0 -2 -8 -10 -17
-17 -16 -13 -17 -12 -4 4 13 16 21 21 21 13z m-170 -98 c0 -5 -4 -8 -10 -8 -5
0 -10 10 -10 23 0 18 2 19 10 7 5 -8 10 -18 10 -22z m115 -70 c-8 -25 -44 -68
-57 -68 -19 0 -6 34 23 61 37 35 42 36 34 7z m-118 -30 c-3 -8 -6 -5 -6 6 -1
11 2 17 5 13 3 -3 4 -12 1 -19z m139 -42 c-4 -24 -14 -50 -22 -57 -8 -6 -14
-26 -14 -43 1 -17 -2 -44 -6 -59 -4 -16 -1 -46 6 -67 11 -33 10 -46 -4 -89
-17 -52 -14 -83 10 -130 16 -30 17 -50 5 -70 -6 -9 -17 5 -40 50 -18 35 -39
76 -49 91 -14 23 -15 32 -4 61 15 42 15 90 0 105 -9 9 -8 16 6 31 9 10 22 49
27 86 9 56 17 73 47 104 21 21 39 36 41 35 2 -2 0 -23 -3 -48z m-169 -78 c-3
-8 -6 -5 -6 6 -1 11 2 17 5 13 3 -3 4 -12 1 -19z m164 -9 c-5 -13 -10 -19 -10
-12 -1 15 10 45 15 40 3 -2 0 -15 -5 -28z m-188 -40 c-9 -9 -12 -7 -10 9 1 14
5 18 11 12 7 -7 6 -14 -1 -21z m97 1 c0 -5 -4 -10 -10 -10 -5 0 -10 -7 -10
-15 0 -8 -5 -15 -11 -15 -5 0 -8 3 -6 8 2 4 7 15 10 25 7 18 27 24 27 7z m90
-71 c0 -35 -15 -31 -22 6 -4 17 -1 25 8 25 9 0 14 -11 14 -31z m-120 -60 c0
-42 -15 -36 -18 7 -2 23 1 33 8 29 5 -3 10 -19 10 -36z m-20 -71 c0 -17 -18
-44 -24 -37 -8 7 5 49 15 49 5 0 9 -6 9 -12z m-35 -102 c3 -20 1 -36 -5 -36
-9 0 -12 11 -12 45 0 50 10 45 17 -9z m89 -25 c-7 -7 -34 28 -34 43 1 6 10 0
21 -13 11 -13 17 -27 13 -30z m-50 -36 c3 -8 1 -15 -3 -15 -5 0 -11 7 -15 15
-3 8 -1 15 3 15 5 0 11 -7 15 -15z m47 2 c-1 -4 -1 -14 -1 -24 0 -22 -13 -8
-17 18 -2 12 2 19 8 17 6 -2 10 -7 10 -11z m132 -62 c27 -28 38 -61 28 -86
-12 -34 -2 -63 35 -105 27 -32 34 -47 34 -84 0 -26 7 -56 17 -70 12 -19 7 -16
-20 9 -21 20 -37 45 -37 57 0 12 -15 37 -34 55 -30 27 -33 35 -24 55 15 32 2
87 -27 112 -27 23 -29 32 -19 82 6 28 8 30 17 14 6 -10 19 -28 30 -39z m-83
-3 c0 -13 -4 -20 -10 -17 -5 3 -10 21 -10 38 0 24 3 28 10 17 5 -8 10 -25 10
-38z m-4 -45 c37 -41 47 -97 18 -97 -11 0 -13 6 -9 20 7 21 -12 63 -45 98 -12
12 -18 27 -14 34 6 9 9 8 12 -2 3 -8 20 -32 38 -53z m-59 -55 c26 -32 32 -49
35 -100 1 -33 -1 -57 -5 -53 -5 5 -10 30 -12 56 -2 38 -9 54 -39 84 -36 37
-41 55 -29 101 7 23 8 22 14 -13 3 -20 20 -54 36 -75z m23 19 c-1 -13 -3 -13
-15 3 -19 26 -19 42 0 26 8 -7 15 -20 15 -29z m108 -56 c0 -19 -4 -35 -9 -35
-10 0 -10 0 -13 52 -2 29 0 35 10 27 6 -5 12 -25 12 -44z m37 -106 c11 -17 -1
-21 -15 -4 -8 9 -8 15 -2 15 6 0 14 -5 17 -11z"/>
<path d="M1405 2450 c-3 -4 6 -11 20 -14 14 -4 25 -11 25 -17 0 -6 5 -7 10 -4
6 3 10 9 10 13 0 11 -59 31 -65 22z"/>
<path d="M1508 2304 c-5 -4 -8 -56 -8 -116 0 -59 -3 -108 -6 -108 -4 0 -27 16
-51 36 -24 20 -46 34 -49 31 -8 -7 95 -87 111 -87 7 0 14 6 16 13 7 23 -6 239
-13 231z"/>
<path d="M1057 2271 c-5 -22 1 -33 14 -25 12 7 12 44 0 44 -5 0 -11 -9 -14
-19z"/>
<path d="M1340 2182 c0 -4 10 -13 23 -21 22 -14 22 -14 3 8 -20 22 -26 25 -26
13z"/>
</g>
</svg>
