<?xml version="1.0" encoding="UTF-8"?>
<svg version="1.1" xmlns="http://www.w3.org/2000/svg" width="107" height="106">
<path d="M0 0 C4.93775708 1.03273351 6.91028545 4.03583473 9.75 8 C10.14832031 8.5465625 10.54664063 9.093125 10.95703125 9.65625 C12.44713902 11.71714482 13.8609373 13.7218746 15 16 C17.26821933 16.74253728 19.56612176 17.39563105 21.875 18 C28.68474576 19.78983051 28.68474576 19.78983051 32 22 C31.55175933 26.66985278 29.97469919 28.23706625 26.4375 31.1875 C23.10150419 34.31732802 23.10150419 34.31732802 21.37109375 38.41796875 C21.37521596 41.01083623 21.61947857 43.43528556 22 46 C22.21806858 47.99896195 22.42646769 49.99900332 22.625 52 C22.74101563 52.9075 22.85703125 53.815 22.9765625 54.75 C22.98816406 55.86375 22.98816406 55.86375 23 57 C21 59 21 59 18 59.375 C14.59821128 59.3110833 12.04045057 58.2900682 8.9375 56.9375 C4.74241421 55.16483969 2.45534809 54.51488397 -2 56 C-4.52753782 57.05689588 -7.04429704 58.11666057 -9.53515625 59.2578125 C-12.43808782 60.13191234 -14.12370353 59.86737537 -17 59 C-17.33 58.67 -17.66 58.34 -18 58 C-17.92860523 56.64631761 -17.7972629 55.29570225 -17.640625 53.94921875 C-16.5917523 44.60131185 -16.5917523 44.60131185 -19.27148438 35.87939453 C-22.67577438 31.93612616 -26.69998783 28.90605218 -31 26 C-30.66015625 24.1015625 -30.66015625 24.1015625 -30 22 C-24.37537448 18.4331643 -17.66447882 16.58347007 -11 17 C-10.690625 15.7934375 -10.690625 15.7934375 -10.375 14.5625 C-8.16797301 8.84429372 -5.15551082 3.43700721 0 0 Z " fill="#F4DD69" transform="translate(57,14)"/>
<path d="M0 0 C4.91170371 1.0353101 6.90554155 4.00012044 9.75 7.9375 C10.91789062 9.52884766 10.91789062 9.52884766 12.109375 11.15234375 C14 14 14 14 15 17 C14.01 17.99 13.02 18.98 12 20 C10.49440461 18.03617993 9.10868317 16.21736634 8 14 C7.34 14.66 6.68 15.32 6 16 C6.99 16.66 7.98 17.32 9 18 C8.67 19.32 8.34 20.64 8 22 C4.97265625 21.609375 4.97265625 21.609375 1.9453125 21.21875 C-0.00498344 20.9627515 -0.00498344 20.9627515 -2 21 C-2 22.32 -2 23.64 -2 25 C-3.65 25 -5.3 25 -7 25 C-3.06045047 26.36579868 -3.06045047 26.36579868 1 27 C0.34 25.35 -0.32 23.7 -1 22 C0.65 22 2.3 22 4 22 C3.505 23.485 3.505 23.485 3 25 C5.31 25.66 7.62 26.32 10 27 C9.67 28.98 9.34 30.96 9 33 C4.48387097 34.12903226 4.48387097 34.12903226 2.125 33.5 C-1.01152983 32.76199298 -3.84455146 33.52370588 -7 34 C-8 33 -8 33 -8.0625 29.9375 C-8.041875 28.968125 -8.02125 27.99875 -8 27 C-8.66 27 -9.32 27 -10 27 C-10 29.31 -10 31.62 -10 34 C-5.18796535 34.73403918 -1.77249726 34.98257297 3 34 C3.66 34.66 4.32 35.32 5 36 C3.95199219 36.18175781 3.95199219 36.18175781 2.8828125 36.3671875 C1.51769531 36.61855469 1.51769531 36.61855469 0.125 36.875 C-1.23238281 37.11863281 -1.23238281 37.11863281 -2.6171875 37.3671875 C-5.16505988 37.83044703 -5.16505988 37.83044703 -7 40 C-7.99 40 -8.98 40 -10 40 C-10 40.66 -10 41.32 -10 42 C-10.9590625 41.7215625 -10.9590625 41.7215625 -11.9375 41.4375 C-12.618125 41.293125 -13.29875 41.14875 -14 41 C-16.05014613 43.05014613 -15.23057975 47.12884588 -15.25 49.9375 C-15.270625 50.67935547 -15.29125 51.42121094 -15.3125 52.18554688 C-15.36462739 54.59467535 -15.36462739 54.59467535 -15 58 C-14.01 58.66 -13.02 59.32 -12 60 C-16.875 59.125 -16.875 59.125 -18 58 C-17.92860523 56.64631761 -17.7972629 55.29570225 -17.640625 53.94921875 C-16.5917523 44.60131185 -16.5917523 44.60131185 -19.27148438 35.87939453 C-22.67577438 31.93612616 -26.69998783 28.90605218 -31 26 C-30.66015625 24.1015625 -30.66015625 24.1015625 -30 22 C-24.37537448 18.4331643 -17.66447882 16.58347007 -11 17 C-10.690625 15.7934375 -10.690625 15.7934375 -10.375 14.5625 C-8.16797301 8.84429372 -5.15551082 3.43700721 0 0 Z " fill="#F0DC70" transform="translate(57,14)"/>
<path d="M0 0 C3.875 0.875 3.875 0.875 5 2 C5.42166444 7.69246989 4.98536975 13.49757993 4.6875 19.1875 C4.60048828 20.87939453 4.60048828 20.87939453 4.51171875 22.60546875 C3.40161367 29.96944822 0.14911445 34.37016179 -4.9375 39.4375 C-9.90096009 44.50945081 -9.90096009 44.50945081 -13.1875 50.75 C-15 54 -15 54 -17.046875 54.7734375 C-21.67007672 55.45332011 -24.71749565 54.9184411 -29 53 C-29.63482313 39.9978818 -29.63482313 39.9978818 -26 35 C-23.54942538 32.42179128 -21.01551764 29.95842811 -18.4375 27.5078125 C-15.72779965 24.71994771 -13.89293607 21.94011507 -12.1328125 18.49609375 C-11 17 -11 17 -8.9921875 16.16015625 C-8.33476563 16.10730469 -7.67734375 16.05445312 -7 16 C-6.34 16.66 -5.68 17.32 -5 18 C-5.3156994 21.99662011 -6.7896508 24.57248093 -9.0625 27.8125 C-9.88427734 28.99779297 -9.88427734 28.99779297 -10.72265625 30.20703125 C-11.14417969 30.79871094 -11.56570312 31.39039062 -12 32 C-6.57089851 25.44763613 -4.50620837 20.72230797 -3.4375 12.375 C-3.21396171 10.67355427 -2.98376233 8.97296702 -2.74609375 7.2734375 C-2.60192017 6.15074463 -2.60192017 6.15074463 -2.45483398 5.00537109 C-2 3 -2 3 0 0 Z " fill="#F2DD6A" transform="translate(98,45)"/>
<path d="M0 0 C1.65 0.33 3.3 0.66 5 1 C6.13554457 5.69358423 7.03110149 9.9876061 7.1875 14.8125 C7.70960072 21.44317913 11.42350013 26.5652143 15 32 C13.84145023 28.5243507 12.04388896 26.02148721 9.9609375 23.03515625 C9 21 9 21 9.3515625 18.74609375 C9.56554688 18.16988281 9.77953125 17.59367187 10 17 C11.32 16.67 12.64 16.34 14 16 C14.4846875 16.70125 14.969375 17.4025 15.46875 18.125 C18.8129417 22.85831749 22.08648066 27.26703557 26.3125 31.25 C31.26494379 36.05649751 33.12442694 40.41318826 33.3125 47.3125 C33.29230769 51.70769231 33.29230769 51.70769231 31 54 C26.103489 55.12996408 22.48176106 55.44459694 18 53 C17.27383864 51.34963328 16.560328 49.69016819 15.96484375 47.98828125 C14.75305512 45.49111359 13.18832559 43.98011546 11.1875 42.0625 C10.48753906 41.38316406 9.78757812 40.70382813 9.06640625 40.00390625 C7.78396835 38.76025664 6.50033914 37.51783273 5.21484375 36.27734375 C-2.13761903 28.05776005 -1.23903 14.68960449 -1.16796875 4.2578125 C-1 2 -1 2 0 0 Z " fill="#F1DC6E" transform="translate(15,44)"/>
<path d="M0 0 C4.91170371 1.0353101 6.90554155 4.00012044 9.75 7.9375 C10.52859375 8.99839844 11.3071875 10.05929688 12.109375 11.15234375 C14 14 14 14 15 17 C14.01 17.99 13.02 18.98 12 20 C10.49440461 18.03617993 9.10868317 16.21736634 8 14 C7.34 14.66 6.68 15.32 6 16 C6.99 16.66 7.98 17.32 9 18 C8.67 19.32 8.34 20.64 8 22 C4.97265625 21.609375 4.97265625 21.609375 1.9453125 21.21875 C-0.00498344 20.9627515 -0.00498344 20.9627515 -2 21 C-2 22.32 -2 23.64 -2 25 C-3.65 25 -5.3 25 -7 25 C-7.68707555 22.50935112 -8 20.62113708 -8 18 C-8.66 18.33 -9.32 18.66 -10 19 C-11.70702735 19.06996014 -13.41668003 19.08440154 -15.125 19.0625 C-16.03507812 19.05347656 -16.94515625 19.04445313 -17.8828125 19.03515625 C-18.93082031 19.01775391 -18.93082031 19.01775391 -20 19 C-16.78360346 17.25434889 -14.67986596 16.795563 -11 17 C-10.79375 16.195625 -10.5875 15.39125 -10.375 14.5625 C-8.16797301 8.84429372 -5.15551082 3.43700721 0 0 Z " fill="#EDDC72" transform="translate(57,14)"/>
<path d="M0 0 C0.33 0.66 0.66 1.32 1 2 C1.66 2.33 2.32 2.66 3 3 C3 3.66 3 4.32 3 5 C3.99 5.33 4.98 5.66 6 6 C6 5.34 6 4.68 6 4 C12.14774382 4.41269577 17.41623869 5.30782937 23 8 C23.87109375 9.93359375 23.87109375 9.93359375 24 12 C21.5625 14.75 21.5625 14.75 19 17 C19.33 15.02 19.66 13.04 20 11 C17.36 10.67 14.72 10.34 12 10 C11.67 10.99 11.34 11.98 11 13 C10.01 13 9.02 13 8 13 C7.34 12.34 6.68 11.68 6 11 C5.67 11.66 5.34 12.32 5 13 C4.34 13 3.68 13 3 13 C3.103125 14.093125 3.20625 15.18625 3.3125 16.3125 C3 20 3 20 0.875 22 C-2.59585663 23.20725448 -4.42920072 22.71415986 -8 22 C-9.216875 22.185625 -10.43375 22.37125 -11.6875 22.5625 C-15 23 -15 23 -18 21 C-18.1875 17.375 -18.1875 17.375 -18 14 C-17.34 14 -16.68 14 -16 14 C-15.67 15.98 -15.34 17.96 -15 20 C-14.12988281 19.87431641 -14.12988281 19.87431641 -13.2421875 19.74609375 C-8.57684697 19.13790579 -4.64557883 18.92794335 0 20 C0.33 18.02 0.66 16.04 1 14 C0.030625 13.71125 -0.93875 13.4225 -1.9375 13.125 C-5 12 -5 12 -6 10 C-6.99 10.495 -6.99 10.495 -8 11 C-7.01 11.99 -6.02 12.98 -5 14 C-5.66 14.66 -6.32 15.32 -7 16 C-7.99 15.34 -8.98 14.68 -10 14 C-12.62531524 13.83286431 -12.62531524 13.83286431 -15 14 C-15 13.34 -15 12.68 -15 12 C-13.35 12 -11.7 12 -10 12 C-10 11.34 -10 10.68 -10 10 C-10.99 9.67 -11.98 9.34 -13 9 C-11.35 8.01 -9.7 7.02 -8 6 C-8 6.66 -8 7.32 -8 8 C-7.01 8 -6.02 8 -5 8 C-4.67 7.01 -4.34 6.02 -4 5 C-3.67 5.99 -3.34 6.98 -3 8 C-2.01 8 -1.02 8 0 8 C0 7.01 0 6.02 0 5 C-0.99 4.34 -1.98 3.68 -3 3 C-2.01 2.01 -1.02 1.02 0 0 Z " fill="#E9DD80" transform="translate(65,27)"/>
<path d="M0 0 C3.875 0.875 3.875 0.875 5 2 C5.55539669 9.64487213 4.66805121 17.38898796 4 25 C3.67 25 3.34 25 3 25 C2.67 19.72 2.34 14.44 2 9 C1.01 9.33 0.02 9.66 -1 10 C-1.09087891 10.87011719 -1.09087891 10.87011719 -1.18359375 11.7578125 C-1.66016561 16.20092863 -2.21008666 20.59905423 -3 25 C-3.66 25 -4.32 25 -5 25 C-5.33 26.98 -5.66 28.96 -6 31 C-6.99 31.33 -7.98 31.66 -9 32 C-9 32.66 -9 33.32 -9 34 C-11.475 34.495 -11.475 34.495 -14 35 C-14 33.02 -14 31.04 -14 29 C-17.93673644 30.31224548 -20.22719294 31.91910327 -23 35 C-23.66 34.67 -24.32 34.34 -25 34 C-24.40832031 33.443125 -23.81664063 32.88625 -23.20703125 32.3125 C-18.75388736 28.01191079 -15.0258296 24.04987784 -12.16796875 18.53125 C-11 17 -11 17 -8.98828125 16.15625 C-8.00408203 16.07890625 -8.00408203 16.07890625 -7 16 C-6.34 16.66 -5.68 17.32 -5 18 C-5.3156994 21.99662011 -6.7896508 24.57248093 -9.0625 27.8125 C-9.88427734 28.99779297 -9.88427734 28.99779297 -10.72265625 30.20703125 C-11.14417969 30.79871094 -11.56570312 31.39039062 -12 32 C-6.57089851 25.44763613 -4.50620837 20.72230797 -3.4375 12.375 C-3.21396171 10.67355427 -2.98376233 8.97296702 -2.74609375 7.2734375 C-2.60192017 6.15074463 -2.60192017 6.15074463 -2.45483398 5.00537109 C-2 3 -2 3 0 0 Z " fill="#E3D885" transform="translate(98,45)"/>
<path d="M0 0 C1.859375 0.15234375 1.859375 0.15234375 4 1 C5.640625 3.00390625 5.640625 3.00390625 7.25 5.5625 C10.64384737 10.67903779 14.51500433 14.82953649 19 19 C18.67 19.66 18.34 20.32 18 21 C17.54625 20.29875 17.0925 19.5975 16.625 18.875 C14.19737984 16.7192835 14.19737984 16.7192835 11.5078125 17.1796875 C8.9747626 17.70351935 6.4889585 18.29701172 4 19 C4 18.01 4 17.02 4 16 C2.84145023 12.5243507 1.04388896 10.02148721 -1.0390625 7.03515625 C-2 5 -2 5 -1.7109375 2.80859375 C-1 1 -1 1 0 0 Z " fill="#E9DB78" transform="translate(26,60)"/>
<path d="M0 0 C1.65 0 3.3 0 5 0 C4.67 0.99 4.34 1.98 4 3 C6.31 3.66 8.62 4.32 11 5 C10.67 6.98 10.34 8.96 10 11 C5.48387097 12.12903226 5.48387097 12.12903226 3.125 11.5 C-0.03278574 10.75699159 -2.83930758 11.45295708 -6 12 C-6.625 9.6875 -6.625 9.6875 -7 7 C-6.34 6.01 -5.68 5.02 -5 4 C-4.030625 4.165 -3.06125 4.33 -2.0625 4.5 C-0.04016429 4.85992293 -0.04016429 4.85992293 2 5 C1.34 3.35 0.68 1.7 0 0 Z " fill="#4D604E" transform="translate(56,36)"/>
<path d="M0 0 C0.99 0.33 1.98 0.66 3 1 C3 3.31 3 5.62 3 8 C3.66 8 4.32 8 5 8 C5.08075665 10.29109597 5.13907731 12.58299267 5.1875 14.875 C5.22230469 16.15117188 5.25710937 17.42734375 5.29296875 18.7421875 C5.19628906 19.81726563 5.09960938 20.89234375 5 22 C4.01 22.66 3.02 23.32 2 24 C0.4523445 20.90468901 0.55590549 17.6333237 0.28125 14.21484375 C0.2334259 12.02929332 0.2334259 12.02929332 -1 11 C-1.09823937 9.33570949 -1.12973631 7.66718069 -1.125 6 C-1.12757812 5.0925 -1.13015625 4.185 -1.1328125 3.25 C-1 1 -1 1 0 0 Z " fill="#F5DD63" transform="translate(16,46)"/>
<path d="M0 0 C0.33 0 0.66 0 1 0 C1.3925703 3.45657707 1.76105763 6.91530096 2.125 10.375 C2.23714844 11.35984375 2.34929687 12.3446875 2.46484375 13.359375 C2.56152344 14.30039063 2.65820312 15.24140625 2.7578125 16.2109375 C2.8520752 17.08024902 2.94633789 17.94956055 3.04345703 18.84521484 C3 21 3 21 1 23 C-3.71071764 23.5888397 -6.60977487 22.864638 -10.9375 20.9375 C-15.83242523 18.80112375 -18.82839955 18.85075545 -24 20 C-23.01 18.515 -23.01 18.515 -22 17 C-19.6171875 16.70703125 -19.6171875 16.70703125 -16.875 16.8125 C-15.96492188 16.83957031 -15.05484375 16.86664063 -14.1171875 16.89453125 C-13.41851562 16.92933594 -12.71984375 16.96414062 -12 17 C-12 17.66 -12 18.32 -12 19 C-10.35 19 -8.7 19 -7 19 C-7 19.66 -7 20.32 -7 21 C-5.68 20.67 -4.36 20.34 -3 20 C-2.67 18.35 -2.34 16.7 -2 15 C-1.67 15 -1.34 15 -1 15 C-0.67 10.05 -0.34 5.1 0 0 Z " fill="#E8DC89" transform="translate(77,50)"/>
<path d="M0 0 C0.99 0.33 1.98 0.66 3 1 C3.125 3.875 3.125 3.875 3 7 C2.34 7.66 1.68 8.32 1 9 C1.99 9.66 2.98 10.32 4 11 C3.67 12.32 3.34 13.64 3 15 C1.68 14.67 0.36 14.34 -1 14 C-1 12.35 -1 10.7 -1 9 C-3.31 8.34 -5.62 7.68 -8 7 C-7.34 5.02 -6.68 3.04 -6 1 C-4.7934375 1.0309375 -4.7934375 1.0309375 -3.5625 1.0625 C-1.06645115 1.29633621 -1.06645115 1.29633621 0 0 Z " fill="#F4DC66" transform="translate(62,21)"/>
<path d="M0 0 C0.33 0 0.66 0 1 0 C1.33 1.65 1.66 3.3 2 5 C2.78375 4.938125 3.5675 4.87625 4.375 4.8125 C5.674375 4.9053125 5.674375 4.9053125 7 5 C7.99 6.485 7.99 6.485 9 8 C8.01 8.99 7.02 9.98 6 11 C6.33 11.99 6.66 12.98 7 14 C5.35 14 3.7 14 2 14 C1.31292445 11.50935112 1 9.62113708 1 7 C0.01 7.495 0.01 7.495 -1 8 C-2.70702735 8.06996014 -4.41668003 8.08440154 -6.125 8.0625 C-7.03507812 8.05347656 -7.94515625 8.04445313 -8.8828125 8.03515625 C-9.58148438 8.02355469 -10.28015625 8.01195312 -11 8 C-7.78360346 6.25434889 -5.67986596 5.795563 -2 6 C-1.34 4.02 -0.68 2.04 0 0 Z " fill="#E8DC84" transform="translate(48,25)"/>
<path d="M0 0 C1.65 0.33 3.3 0.66 5 1 C5.33 3.97 5.66 6.94 6 10 C5.34 10 4.68 10 4 10 C3.67 7.69 3.34 5.38 3 3 C2.34 3 1.68 3 1 3 C0.97311849 4.64574566 0.95365877 6.29161413 0.9375 7.9375 C0.92589844 8.85402344 0.91429687 9.77054688 0.90234375 10.71484375 C0.74050951 12.96593327 0.74050951 12.96593327 2 14 C2.07319621 16.69654854 2.09242537 19.36691458 2.0625 22.0625 C2.05798828 22.82111328 2.05347656 23.57972656 2.04882812 24.36132812 C2.0370068 26.24091871 2.01907078 28.12046899 2 30 C1.67 30 1.34 30 1 30 C-2.54150198 5.08300395 -2.54150198 5.08300395 0 0 Z " fill="#E7DB90" transform="translate(15,44)"/>
<path d="M0 0 C4.42068526 4.0306248 8.31776927 8.61537138 11 14 C10.67 14.99 10.34 15.98 10 17 C9.01 17.33 8.02 17.66 7 18 C5 13.25 5 13.25 5 11 C4.34 11 3.68 11 3 11 C3.0928125 9.824375 3.0928125 9.824375 3.1875 8.625 C3.125625 7.75875 3.06375 6.8925 3 6 C2.01 5.34 1.02 4.68 0 4 C0 2.68 0 1.36 0 0 Z " fill="#E9D977" transform="translate(61,16)"/>
<path d="M0 0 C0.33 1.32 0.66 2.64 1 4 C0.34 4 -0.32 4 -1 4 C-1 8.29 -1 12.58 -1 17 C2.96 17.33 6.92 17.66 11 18 C7.57611192 20.28259205 6.79805495 20.16215534 2.875 19.6875 C1.54082031 19.53861328 1.54082031 19.53861328 0.1796875 19.38671875 C-2 19 -2 19 -3 18 C-3.60621905 11.2616421 -3.18947978 5.98027459 0 0 Z " fill="#DFD895" transform="translate(72,80)"/>
<path d="M0 0 C1.890625 0.15234375 1.890625 0.15234375 4 1 C5.484375 3.06640625 5.484375 3.06640625 6.75 5.5625 C7.17796875 6.38878906 7.6059375 7.21507813 8.046875 8.06640625 C8.36140625 8.70449219 8.6759375 9.34257813 9 10 C8.34 10 7.68 10 7 10 C7 9.34 7 8.68 7 8 C6.34 8 5.68 8 5 8 C5 7.01 5 6.02 5 5 C4.34 5 3.68 5 3 5 C3 4.34 3 3.68 3 3 C2.01 3 1.02 3 0 3 C0.37253906 3.62648437 0.74507812 4.25296875 1.12890625 4.8984375 C1.60199219 5.71570313 2.07507813 6.53296875 2.5625 7.375 C3.27599609 8.59316406 3.27599609 8.59316406 4.00390625 9.8359375 C4.33261719 10.55007812 4.66132813 11.26421875 5 12 C4.67 12.66 4.34 13.32 4 14 C2.96387729 12.59447701 1.94655075 11.17508306 0.9375 9.75 C0.36902344 8.96109375 -0.19945313 8.1721875 -0.78515625 7.359375 C-2 5 -2 5 -1.74609375 2.765625 C-1 1 -1 1 0 0 Z " fill="#E0D88B" transform="translate(26,60)"/>
<path d="M0 0 C0.99 0 1.98 0 3 0 C3 0.66 3 1.32 3 2 C3.66 2 4.32 2 5 2 C5 2.99 5 3.98 5 5 C5.66 5 6.32 5 7 5 C7 5.66 7 6.32 7 7 C7.66 7 8.32 7 9 7 C8.67 9.31 8.34 11.62 8 14 C7.67 13.01 7.34 12.02 7 11 C6.34 11 5.68 11 5 11 C3.7109375 9.35546875 3.7109375 9.35546875 2.375 7.1875 C1.92898437 6.47980469 1.48296875 5.77210937 1.0234375 5.04296875 C0 3 0 3 0 0 Z " fill="#F2DC67" transform="translate(26,63)"/>
<path d="M0 0 C0.66 0.66 1.32 1.32 2 2 C1.34 3.98 0.68 5.96 0 8 C-2.31 7.67 -4.62 7.34 -7 7 C-7.33 5.68 -7.66 4.36 -8 3 C-5.36 2.01 -2.72 1.02 0 0 Z " fill="#F2DD64" transform="translate(38,36)"/>
<path d="M0 0 C0.66 1.32 1.32 2.64 2 4 C0.35 4.33 -1.3 4.66 -3 5 C-2.01 6.65 -1.02 8.3 0 10 C-3.41099168 10 -6.63088314 9.50854594 -10 9 C-10 8.34 -10 7.68 -10 7 C-8.35 7 -6.7 7 -5 7 C-5 6.34 -5 5.68 -5 5 C-5.99 4.67 -6.98 4.34 -8 4 C-6.35 3.01 -4.7 2.02 -3 1 C-3 1.66 -3 2.32 -3 3 C-2.01 3 -1.02 3 0 3 C0 2.01 0 1.02 0 0 Z " fill="#ECE99F" transform="translate(60,32)"/>
<path d="M0 0 C0.33 2.31 0.66 4.62 1 7 C0.01 7.495 0.01 7.495 -1 8 C-3.625 7.0625 -3.625 7.0625 -6 6 C-5.67 4.35 -5.34 2.7 -5 1 C-1.125 0 -1.125 0 0 0 Z " fill="#F3DF6A" transform="translate(61,15)"/>
<path d="M0 0 C0.66 0.66 1.32 1.32 2 2 C1.34 2.66 0.68 3.32 0 4 C0.99 4.66 1.98 5.32 3 6 C2.67 7.32 2.34 8.64 2 10 C0.68 9.67 -0.64 9.34 -2 9 C-2 7.35 -2 5.7 -2 4 C-2.99 3.67 -3.98 3.34 -5 3 C-5 2.67 -5 2.34 -5 2 C-3.35 2 -1.7 2 0 2 C0 1.34 0 0.68 0 0 Z " fill="#E8D36C" transform="translate(63,26)"/>
<path d="M0 0 C0.7421875 1.671875 0.7421875 1.671875 1 4 C-0.6171875 6.578125 -0.6171875 6.578125 -2.875 9.25 C-3.61492187 10.14203125 -4.35484375 11.0340625 -5.1171875 11.953125 C-5.73851563 12.62859375 -6.35984375 13.3040625 -7 14 C-7.33 14 -7.66 14 -8 14 C-8 12.35 -8 10.7 -8 9 C-7.34 9 -6.68 9 -6 9 C-6 8.34 -6 7.68 -6 7 C-5.195625 6.773125 -4.39125 6.54625 -3.5625 6.3125 C-2.716875 5.879375 -1.87125 5.44625 -1 5 C-0.10613836 2.45224694 -0.10613836 2.45224694 0 0 Z " fill="#E7DB7C" transform="translate(100,71)"/>
<path d="M0 0 C0.78375 0.185625 1.5675 0.37125 2.375 0.5625 C4.97089775 1.25962266 4.97089775 1.25962266 7 0 C7 1.98 7 3.96 7 6 C8.32 6.33 9.64 6.66 11 7 C11 8.65 11 10.3 11 12 C6.33867137 8.42270128 3.26088466 4.89132699 0 0 Z " fill="#E7DC87" transform="translate(17,75)"/>
<path d="M0 0 C2.97 0.495 2.97 0.495 6 1 C6 1.66 6 2.32 6 3 C4.35 3 2.7 3 1 3 C0.67 4.32 0.34 5.64 0 7 C1.65 6.67 3.3 6.34 5 6 C4.67 6.66 4.34 7.32 4 8 C2.35 8 0.7 8 -1 8 C-1.625 5.6875 -1.625 5.6875 -2 3 C-1.34 2.01 -0.68 1.02 0 0 Z " fill="#2B422F" transform="translate(51,40)"/>
<path d="M0 0 C1.98 0.495 1.98 0.495 4 1 C4 1.99 4 2.98 4 4 C2.35 4.33 0.7 4.66 -1 5 C-0.67 3.35 -0.34 1.7 0 0 Z " fill="#D0DFB6" transform="translate(52,42)"/>
<path d="M0 0 C0.66 0.33 1.32 0.66 2 1 C1.01 2.485 1.01 2.485 0 4 C0.66 4 1.32 4 2 4 C2.66 5.65 3.32 7.3 4 9 C1.53199953 7.84826645 -0.04783565 6.95216435 -2 5 C-1.46428571 1.46428571 -1.46428571 1.46428571 0 0 Z " fill="#E3E196" transform="translate(28,35)"/>
<path d="M0 0 C0.33 0.66 0.66 1.32 1 2 C0.0625 4.125 0.0625 4.125 -1 6 C-1.66 6 -2.32 6 -3 6 C-3 6.66 -3 7.32 -3 8 C-3.66 8 -4.32 8 -5 8 C-4.45773019 4.20411134 -2.79872437 2.52788007 0 0 Z " fill="#EDDC7E" transform="translate(92,71)"/>
<path d="M0 0 C1.65 0 3.3 0 5 0 C5 0.66 5 1.32 5 2 C5.66 2 6.32 2 7 2 C6.67 2.66 6.34 3.32 6 4 C3.69 3.67 1.38 3.34 -1 3 C-0.67 2.01 -0.34 1.02 0 0 Z " fill="#EADF82" transform="translate(61,36)"/>
<path d="M0 0 C1.98 0 3.96 0 6 0 C6.33 1.32 6.66 2.64 7 4 C4.625 3.6875 4.625 3.6875 2 3 C1.34 2.01 0.68 1.02 0 0 Z " fill="#E4DB75" transform="translate(36,48)"/>
<path d="M0 0 C0.8125 1.6875 0.8125 1.6875 1 4 C-1.4375 6.75 -1.4375 6.75 -4 9 C-3.67 7.68 -3.34 6.36 -3 5 C-2.34 5 -1.68 5 -1 5 C-0.67 3.35 -0.34 1.7 0 0 Z " fill="#E2DA90" transform="translate(100,71)"/>
<path d="M0 0 C1.98 0.495 1.98 0.495 4 1 C4 1.99 4 2.98 4 4 C2.35 3.67 0.7 3.34 -1 3 C-0.67 2.01 -0.34 1.02 0 0 Z " fill="#CEE3CB" transform="translate(61,42)"/>
<path d="M0 0 C0.99 0.33 1.98 0.66 3 1 C2.67 2.32 2.34 3.64 2 5 C0.68 4.34 -0.64 3.68 -2 3 C-1.34 2.01 -0.68 1.02 0 0 Z " fill="#39320D" transform="translate(52,31)"/>
<path d="M0 0 C1.32 0 2.64 0 4 0 C3.67 1.32 3.34 2.64 3 4 C1.68 3.67 0.36 3.34 -1 3 C-0.67 2.01 -0.34 1.02 0 0 Z " fill="#342E0B" transform="translate(62,32)"/>
<path d="M0 0 C0.33 0.66 0.66 1.32 1 2 C1.66 2.33 2.32 2.66 3 3 C2.67 4.32 2.34 5.64 2 7 C0.35 5.68 -1.3 4.36 -3 3 C-2.01 2.01 -1.02 1.02 0 0 Z " fill="#F6E57A" transform="translate(65,27)"/>
</svg>
