<svg xmlns:xlink="http://www.w3.org/1999/xlink" xmlns="http://www.w3.org/2000/svg" viewBox="0 0 350.00000000000006 165.0474793528382" preserveAspectRatio="xMidYMid meet" class="css-4ymrzp" id="eebbdadf" width="350.00000000000006"  height="165.0474793528382" ><defs id="SvgjsDefs1060"></defs><g id="SvgjsG1061" featurekey="DMynUx-0" transform="matrix(0.5932203389830509,0,0,0.5932203389830509,105,0)" fill="#973961"><defs xmlns="http://www.w3.org/2000/svg"></defs><g xmlns="http://www.w3.org/2000/svg" fill="#973961"><path d="M114 0l44 65 24 -37 24 36 10 8 20 36 -40 0 15 6 -82 -3 -34 11 -5 -12 -76 5 13 -7 -27 0 13 -24 6 -5 36 -54 21 32 38 -57zm69 38l-2 7 -4 -1 -15 25 9 7 15 21 -10 -26 7 0 -6 -7 10 1 -7 -13 13 1 -10 -15zm-128 -6l-33 50 -3 17 10 -16 8 0 6 -14 5 8 2 -13 11 -10 -13 -3 10 -8 -3 -11zm58 -22l-44 64 4 15 5 -12 10 0 8 -8 20 -1 -3 -11 25 8 -18 -26 -22 10 19 -25 -4 -14z" style="" fill="#973961"></path></g></g><g id="SvgjsG1062" featurekey="xgcenu-0" transform="matrix(3.932468305515153,0,0,3.932468305515153,-2.997442186967459,66.67286560266325)" fill="#623448"><path d="M11.169 6.441000000000001 c0.16949 0 0.32203 0.13592 0.32203 0.32237 l0 1.6949 c0 0.16933 -0.15254 0.32186 -0.32203 0.32186 l-3.8305 0 l0 10.881 c0 0.20339 -0.13559 0.33881 -0.32203 0.33881 l-1.2542 0 c-0.54237 0 -0.84746 -0.37288 -0.84746 -0.86441 l0 -10.356 l-3.8136 0 c-0.16949 0 -0.33898 -0.13559 -0.33898 -0.32203 l0 -1.678 c0 -0.18644 0.15254 -0.33898 0.33898 -0.33898 l10.068 0 z M19.491337288135593 11.9663 c0.22034 0.15254 0.30525 0.27119 0.13592 0.50847 l-0.88136 1.2881 c-0.10169 0.15254 -0.23729 0.20339 -0.44068 0.15254 c-0.23729 -0.084746 -0.47458 -0.20339 -0.98322 -0.20339 c-0.50847 0 -1.4576 0.22034 -1.7119 1.322 l0 4.6441 c0 0.16949 -0.13559 0.32186 -0.32203 0.32186 l-1.7119 0 c-0.16949 0 -0.30508 -0.15238 -0.30508 -0.32186 l0 -7.7456 c0 -0.16949 0.13559 -0.32203 0.30508 -0.32203 l1.1695 0 c0.45763 0 0.76271 0.40678 0.84729 0.76271 c0.50864 -0.44068 1.1697 -0.83068 2.1356 -0.83068 c0.86441 0 1.4746 0.22034 1.7627 0.42373 z M28.372854237288134 19.57644 c-0.25441 -1.661 -0.27153 -3.1529 -0.20373 -4.7631 c0.08458 -2.0168 -1.0678 -3.3049 -3.1356 -3.3049 c-1.3729 0 -2.8136 0.38983 -3.6441 0.84746 c-0.16933 0.10186 -0.30492 0.28831 -0.22017 0.4578 l0.54237 1.2881 c0.084746 0.18644 0.22034 0.25424 0.47458 0.15254 c1.0169 -0.44068 1.8644 -0.69492 2.678 -0.69492 c0.66102 0 1.0678 0.13559 1.051 0.79661 c-2.7458 0.47458 -5.2373 1.0169 -5.2373 3.339 c0 1.5424 1.1017 2.3897 2.8475 2.3897 c1.4407 0 2.0847 -0.42356 2.6102 -0.9322 c0.11864 0.50864 0.32203 0.84746 0.74576 0.84746 l1.2712 0 c0.18644 0 0.25424 -0.22017 0.22034 -0.42356 z M23.948854237288135 18.2541 c-0.52542 0 -0.88136 -0.15254 -0.88136 -0.59322 c0 -0.76271 1.6102 -1.1017 2.8136 -1.3559 c-0.016949 0.37288 -0.016949 0.94915 0 1.2712 c-0.50847 0.42356 -1.322 0.67797 -1.9322 0.67797 z M37.61015254237288 11.6102 l-1.8646 0 c-0.18644 0 -0.25424 0.11881 -0.32203 0.3222 l-1.7625 4.1524 l-1.7797 -4.1524 c-0.067797 -0.20339 -0.13559 -0.3222 -0.32203 -0.3222 l-1.9322 0 c-0.18644 0 -0.30508 0.11881 -0.20356 0.3222 l3.7966 7.9153 c0.067797 0.11864 0.23746 0.23712 0.3561 0.23712 l0.16949 0 c0.11864 0 0.28814 -0.11848 0.35593 -0.23712 l3.7797 -7.9153 c0.10169 -0.18661 -0.084746 -0.3222 -0.27119 -0.3222 z M45.55935423728814 16.5934 c0.74576 0 1.2375 -0.40695 1.2375 -1.2205 c0 -1.9831 -1.5593 -3.8814 -4.0678 -3.8814 c-2.3729 0 -4.2203 1.8475 -4.2203 4.3051 c0 2.5763 1.949 4.288 4.3219 4.288 c1.5085 0 2.7119 -0.52542 3.4068 -1.5085 c0.11864 -0.15254 0.084746 -0.27119 -0.050847 -0.44068 l-0.38983 -0.5422 c-0.16949 -0.22034 -0.32203 -0.18644 -0.52542 -0.084746 c-0.45763 0.25424 -1.339 0.52542 -2.1695 0.52542 c-1.0169 0 -1.9322 -0.49153 -2.1356 -1.4405 l4.5932 0 z M40.98305423728814 14.7966 c0.084746 -0.54237 0.72881 -1.1695 1.6949 -1.1695 c0.98305 0 1.5932 0.61017 1.678 1.1695 l-3.3729 0 z M50.69477966101695 6.441000000000001 l-1.6949 -0.00016552 c-0.18661 0 -0.3222 0.15254 -0.3222 0.32203 l0 12.373 c0 0.49153 0.30525 0.86441 0.83068 0.86441 l1.1864 0 c0.18644 0 0.32203 -0.13543 0.32203 -0.33881 l0 -12.898 c0 -0.16949 -0.15254 -0.32203 -0.32203 -0.32203 z M64.91538983050847 6.441000000000001 c0.16949 0 0.33915 0.15254 0.33915 0.32203 l0 12.915 c0 0.16949 -0.13559 0.32186 -0.32203 0.32186 l-0.55932 0 c-0.45763 0 -0.94915 -0.32203 -1.5593 -1 l-6.9322 -7.7456 l0 8.4068 c0 0.16949 -0.15254 0.32203 -0.33915 0.32203 l-1.7288 0.016784 c-0.18644 0 -0.33898 -0.15238 -0.33898 -0.33881 l0 -12.898 c0 -0.16949 0.15254 -0.32203 0.32203 -0.32203 l1 0 c0.18644 0 0.30508 0.067797 0.45763 0.25424 l7.5763 8.678 l0 -8.6102 c0 -0.16949 0.13559 -0.32203 0.32203 -0.32203 l1.7627 0 z M71.54222372881357 20.11864 c2.3729 0 4.339 -1.8642 4.339 -4.3049 c0 -2.4746 -1.9661 -4.322 -4.339 -4.322 s-4.339 1.8475 -4.339 4.322 c0 2.4407 1.9661 4.3049 4.339 4.3049 z M71.54222372881357 17.9493 c-1.2034 0 -2.0847 -0.98305 -2.0847 -2.1186 c0 -1.1695 0.88136 -2.1525 2.0847 -2.1525 s2.0847 0.98305 2.0847 2.1525 c0 1.1356 -0.88136 2.1186 -2.0847 2.1186 z M89.47433898305086 11.6102 c0.23729 0 0.35559 0.15254 0.2539 0.38966 l-3.2712 7.7798 c-0.033898 0.11864 -0.16949 0.22017 -0.30492 0.22017 l-0.23729 0 c-0.15254 0 -0.28814 -0.10153 -0.35593 -0.22017 l-2.3388 -4.4068 l-2.3559 4.4068 c-0.067797 0.11864 -0.20339 0.22017 -0.35593 0.22017 l-0.23729 0 c-0.15254 0 -0.27119 -0.10153 -0.32203 -0.22017 l-3.2542 -7.7798 c-0.10153 -0.23712 0.017115 -0.38966 0.25441 -0.38966 l1.7627 0 c0.16949 0 0.32203 0.10169 0.38983 0.23729 l1.6271 4.2712 l1.9492 -4.2034 c0.067797 -0.13559 0.20339 -0.22034 0.38983 -0.22034 l0.28797 0 c0.20339 0 0.3222 0.084746 0.37305 0.22034 l1.9659 4.2034 l1.6271 -4.2712 c0.067797 -0.13559 0.20339 -0.23729 0.37271 -0.23729 l1.7798 0 z" fill="#623448"></path></g><g id="SvgjsG1063" featurekey="jZLKOX-0" transform="matrix(0.5541082706534428,0,0,0.5541082706534428,34.567102946579425,153.8029606223089)" fill="#973961"><path d="M0.78125 4.257999999999999 l3.1543 0 l0 12.588 l6.2891 0 l0 3.1543 l-9.4434 0 l0 -15.742 z M35.4990234375 20 l0 -15.742 l3.1543 0 l0 15.742 l-3.1543 0 z M64.318359375 3.965 l7.6758 10.527 l7.6758 -10.527 l0 16.035 l-3.1543 0 l0 -6.4941 l-4.5215 6.2402 l-4.5215 -6.2402 l0 6.4941 l-3.1543 0 l0 -16.035 z M105.3349609375 20 l0 -15.742 l3.1543 0 l0 15.742 l-3.1543 0 z M137.894546875 4.257999999999999 l3.1543 0 l3.9355 0 l0 3.1445 l-3.9355 0 l0 12.598 l-3.1543 0 l0 -12.598 l-3.9355 0 l0 -3.1445 l3.9355 0 z M170.4541015625 4.257999999999999 l3.1543 0 l0 12.588 l6.2891 0 l0 3.1543 l-9.4434 0 l0 -15.742 z M205.171875 4.257999999999999 l9.4434 0 l0 3.1445 l-6.2891 0 l0 3.1543 l4.7168 0 l0 3.1445 l-4.7168 0 l0 3.1445 l6.2891 0 l0 3.1543 l-6.2891 0 l-3.1543 0 l0 -15.742 z M244.8603671875 16.8945 l-0.0097656 -0.019531 c0.86914 0 1.5918 -0.72266 1.5918 -1.5918 c0 -0.67383 -0.26367 -1.1035 -0.80078 -1.2988 c-1.1328 -0.41992 -0.85938 -0.32227 -1.9629 -0.70313 c-1.1621 -0.40039 -2.2363 -1.1914 -2.959 -2.1777 c-0.42969 -0.58594 -0.64453 -1.3086 -0.64453 -2.1777 c0 -1.3086 0.46875 -2.4316 1.4063 -3.3691 s2.0605 -1.4063 3.3789 -1.4063 c1.3086 0 2.4316 0.46875 3.3691 1.4063 s1.4063 2.0605 1.4063 3.3691 l-3.1738 0 c0 -0.85938 -0.72266 -1.582 -1.582 -1.582 c-0.86914 0 -1.5918 0.72266 -1.5918 1.5918 c0 0.56641 0.22461 0.99609 0.68359 1.2891 c0.9375 0.60547 0.83008 0.48828 1.9531 0.82031 c1.2109 0.35156 2.3047 1.1035 3.0566 2.0703 c0.43945 0.56641 0.66406 1.2988 0.66406 2.1875 c0 1.3184 -0.46875 2.4414 -1.4063 3.3789 s-2.0605 1.4063 -3.3691 1.4063 c-1.3184 0 -2.4414 -0.46875 -3.3789 -1.4063 s-1.4063 -2.0605 -1.4063 -3.3789 l3.1836 0 c0 0.87891 0.71289 1.5918 1.5918 1.5918 z M279.871109375 16.8945 l-0.0097656 -0.019531 c0.86914 0 1.5918 -0.72266 1.5918 -1.5918 c0 -0.67383 -0.26367 -1.1035 -0.80078 -1.2988 c-1.1328 -0.41992 -0.85938 -0.32227 -1.9629 -0.70313 c-1.1621 -0.40039 -2.2363 -1.1914 -2.959 -2.1777 c-0.42969 -0.58594 -0.64453 -1.3086 -0.64453 -2.1777 c0 -1.3086 0.46875 -2.4316 1.4063 -3.3691 s2.0605 -1.4063 3.3789 -1.4063 c1.3086 0 2.4316 0.46875 3.3691 1.4063 s1.4063 2.0605 1.4063 3.3691 l-3.1738 0 c0 -0.85938 -0.72266 -1.582 -1.582 -1.582 c-0.86914 0 -1.5918 0.72266 -1.5918 1.5918 c0 0.56641 0.22461 0.99609 0.68359 1.2891 c0.9375 0.60547 0.83008 0.48828 1.9531 0.82031 c1.2109 0.35156 2.3047 1.1035 3.0566 2.0703 c0.43945 0.56641 0.66406 1.2988 0.66406 2.1875 c0 1.3184 -0.46875 2.4414 -1.4063 3.3789 s-2.0605 1.4063 -3.3691 1.4063 c-1.3184 0 -2.4414 -0.46875 -3.3789 -1.4063 s-1.4063 -2.0605 -1.4063 -3.3789 l3.1836 0 c0 0.87891 0.71289 1.5918 1.5918 1.5918 z M339.775395625 4.257999999999999 l3.3887 0 l2.9004 7.4219 l2.9004 -7.4219 l2.9004 7.4219 l2.8906 -7.4219 l3.3984 0 l-6.2891 16.035 l-2.9297 -7.8027 l-2.8711 7.8027 z M389.8349171875 4.18 c2.1875 0 4.0625 0.78125 5.625 2.3438 s2.3438 3.4375 2.3438 5.625 s-0.78125 4.0625 -2.3438 5.6152 s-3.4375 2.334 -5.625 2.334 s-4.0625 -0.78125 -5.6152 -2.334 s-2.334 -3.4277 -2.334 -5.6152 s0.78125 -4.0625 2.334 -5.625 s3.4277 -2.3438 5.6152 -2.3438 z M389.8349171875 7.353999999999999 c-1.3184 0 -2.4414 0.46875 -3.3691 1.4063 s-1.3965 2.0605 -1.3965 3.3691 c0 1.3184 0.46875 2.4414 1.3965 3.3691 s2.0508 1.3965 3.3691 1.3965 c1.3086 0 2.4316 -0.46875 3.3691 -1.3965 s1.4063 -2.0508 1.4063 -3.3691 c0 -1.3086 -0.46875 -2.4316 -1.4063 -3.3691 s-2.0605 -1.4063 -3.3691 -1.4063 z M423.05859375 20 l-0.0097656 -15.762 l5.1172 0 c1.5137 0 3.0078 0.52734 4.0918 1.6113 s1.5234 2.0996 1.5234 3.6133 l0 0.48828 c0 1.1719 -0.33203 2.0313 -0.99609 2.9688 s-1.2207 1.2109 -2.2559 1.6016 l3.5547 5.4785 l-3.8477 0 l-4.0234 -6.1523 l0 6.1523 l-3.1543 0 z M426.20314375 11.8164 l2.2559 0.0097656 c0.6543 0 0.98633 -0.16602 1.4453 -0.625 s0.625 -0.98633 0.625 -1.6406 c0 -0.64453 -0.16602 -1.0742 -0.625 -1.543 s-1.2793 -0.63477 -1.9336 -0.63477 l-1.7676 0 l0 4.4336 z M459.6513671875 4.257999999999999 l3.1543 0 l0 12.588 l6.2891 0 l0 3.1543 l-9.4434 0 l0 -15.742 z M498.246090625 4.297000000000001 l0 -0.0097656 c2.1582 0 4.1992 0.77148 5.7422 2.3145 c2.8125 2.8125 2.8125 8.291 0 11.094 c-1.543 1.5332 -3.584 2.3047 -5.7422 2.3047 l-3.8867 0 l0 -15.703 l3.8867 0 z M498.255890625 16.8457 l0.0097656 0 c1.2891 0 2.4805 -0.36133 3.3984 -1.2793 s1.2793 -2.1289 1.2793 -3.4277 c0 -1.2891 -0.36133 -2.5 -1.2891 -3.4277 c-0.91797 -0.92773 -2.1289 -1.2891 -3.418 -1.2891 l-0.72266 0 l0 9.4238 l0.74219 0 z" fill="#973961"></path></g></svg>